<svg width="1000" height="1000" viewBox="0 0 1000 1000" fill="none" xmlns="http://www.w3.org/2000/svg">
<path d="M333.477 390.727C330.92 369.136 320.551 352.375 302.369 340.443C284.188 328.511 261.886 322.545 235.466 322.545C216.148 322.545 199.244 325.67 184.756 331.92C170.409 338.17 159.188 346.764 151.091 357.702C143.136 368.639 139.159 381.068 139.159 394.989C139.159 406.636 141.929 416.651 147.469 425.031C153.151 433.27 160.395 440.159 169.202 445.699C178.009 451.097 187.241 455.571 196.901 459.122C206.56 462.531 215.438 465.301 223.534 467.432L267.852 479.364C279.216 482.347 291.858 486.466 305.778 491.722C319.841 496.977 333.264 504.151 346.048 513.241C358.974 522.19 369.628 533.696 378.009 547.759C386.389 561.821 390.58 579.08 390.58 599.534C390.58 623.114 384.401 644.42 372.043 663.455C359.827 682.489 341.929 697.616 318.349 708.838C294.912 720.06 266.432 725.67 232.909 725.67C201.659 725.67 174.599 720.628 151.73 710.543C129.003 700.457 111.105 686.395 98.0369 668.355C85.1108 650.315 77.7955 629.364 76.0909 605.5H130.636C132.057 621.977 137.597 635.614 147.256 646.409C157.057 657.062 169.415 665.017 184.33 670.273C199.386 675.386 215.58 677.943 232.909 677.943C253.08 677.943 271.19 674.676 287.241 668.142C303.293 661.466 316.006 652.233 325.381 640.443C334.756 628.511 339.443 614.591 339.443 598.682C339.443 584.193 335.395 572.403 327.298 563.312C319.202 554.222 308.548 546.835 295.338 541.153C282.128 535.472 267.852 530.5 252.511 526.239L198.818 510.898C164.727 501.097 137.739 487.105 117.852 468.923C97.9659 450.741 88.0227 426.949 88.0227 397.545C88.0227 373.114 94.6278 351.807 107.838 333.625C121.19 315.301 139.088 301.097 161.531 291.011C184.116 280.784 209.33 275.67 237.17 275.67C265.295 275.67 290.295 280.713 312.17 290.798C334.045 300.741 351.375 314.378 364.159 331.707C377.085 349.037 383.903 368.71 384.614 390.727H333.477ZM477.458 281.636H540.526L688.822 643.852H693.935L842.231 281.636H905.299V718H855.867V386.466H851.606L715.242 718H667.515L531.151 386.466H526.89V718H477.458V281.636Z" fill="#40AA54"/>
</svg>
